<?xml version="1.0" encoding="iso-8859-1"?>
<!-- Generator: Adobe Illustrator 19.0.0, SVG Export Plug-In . SVG Version: 6.00 Build 0)  -->
<svg version="1.1" id="Layer_1" xmlns="http://www.w3.org/2000/svg" xmlns:xlink="http://www.w3.org/1999/xlink" x="0px" y="0px"
	 viewBox="0 0 512 512" style="enable-background:new 0 0 512 512;" xml:space="preserve">
<path style="fill:#4C9CD6;" d="M96,208h320c8.84,0,16,7.16,16,16v272c0,8.84-7.16,16-16,16H96c-8.84,0-16-7.16-16-16V224
	C80,215.16,87.16,208,96,208z"/>
<g>
	<rect x="80" y="464" style="fill:#3689C9;" width="352" height="16"/>
	<rect x="80" y="256" style="fill:#3689C9;" width="352" height="16"/>
</g>
<path style="fill:#576D7E;" d="M288,328c0-17.672-14.32-32-32-32c-17.672,0-32,14.32-32,32c0,10.56,5.208,20.44,13.92,26.408
	L225.6,416c-0.936,3.36,1.04,6.848,4.4,7.776c0.656,0.184,1.328,0.256,2,0.224h48c3.488,0.168,6.448-2.52,6.624-6
	c0.032-0.672-0.04-1.344-0.224-2l-12.32-61.6C282.792,348.432,288,338.56,288,328z"/>
<path style="fill:#3689C9;" d="M416,240v256H112c-8.84,0-16,7.16-16,16h320c8.84,0,16-7.16,16-16V224l0,0
	C423.16,224,416,231.16,416,240z"/>
<path style="fill:#3F556B;" d="M253.92,362.4c-14.576-10-18.288-29.912-8.288-44.488c7.168-10.448,19.832-15.688,32.288-13.352
	c-13.168-11.792-33.392-10.68-45.184,2.488s-10.68,33.392,2.488,45.184c0.856,0.768,1.76,1.496,2.696,2.168L225.6,416
	c-0.936,3.36,1.04,6.848,4.4,7.776c0.656,0.184,1.328,0.256,2,0.224h9.6L253.92,362.4z"/>
<path style="fill:#B2C4D0;" d="M256,0c-70.696,0-128,57.304-128,128v80h48v-80c0-44.184,35.816-80,80-80s80,35.816,80,80v80h48v-80
	C384,57.304,326.696,0,256,0z"/>
<g>
	<path style="fill:#8FAEBF;" d="M201.12,59.12c-25.88,16.104-41.472,44.56-41.12,75.04V176c0,8.84-7.16,16-16,16l0,0
		c-8.84,0-16,7.16-16,16h48v-80c0.016-24.456,11.216-47.56,30.4-62.72c1.856-1.216,2.376-3.704,1.16-5.56s-3.704-2.376-5.56-1.16
		L201.12,59.12z"/>
	<path style="fill:#8FAEBF;" d="M256,0c-0.56,0-0.8,0.72-0.8,1.84c0.2,8.064,6.376,14.712,14.4,15.52C328.88,25.84,368,64.8,368,128
		v48c0,8.84-7.16,16-16,16l0,0c-8.84,0-16,7.16-16,16h48v-80C384,57.304,326.696,0,256,0z"/>
</g>
<path style="fill:#70B7E5;" d="M96,208h320l0,0l0,0c0,8.84-7.16,16-16,16H112C103.16,224,96,216.84,96,208L96,208L96,208z"/>
<g>
</g>
<g>
</g>
<g>
</g>
<g>
</g>
<g>
</g>
<g>
</g>
<g>
</g>
<g>
</g>
<g>
</g>
<g>
</g>
<g>
</g>
<g>
</g>
<g>
</g>
<g>
</g>
<g>
</g>
</svg>
